<svg xmlns="http://www.w3.org/2000/svg" viewBox="0 0 183.99 171.75"><defs><style>.cls-1,.cls-2{stroke:#000;stroke-miterlimit:10;stroke-width:0.75px;}.cls-2{fill:none;}</style></defs><title>amf-logo</title><g id="Layer_2" data-name="Layer 2"><g id="Layer_1-2" data-name="Layer 1"><path class="cls-1" d="M22.34,50.92h.94V57a9.1,9.1,0,0,1-3.89.94,5.71,5.71,0,0,1-5.47-3.24c-1.3,1.94-2.88,3.38-5.76,3.38-5,0-7.78-4.18-7.78-12,0-6.62,3-11.09,6.34-13.18a14.9,14.9,0,0,1,5.11-2V24.14c0-3.24-.72-4.1-1.87-4.1-.72,0-1.37.29-1.37,1.3s1.66,1.08,1.66,3.82a4.4,4.4,0,0,1-4.32,4.39c-3.17,0-5.18-2.38-5.18-5.76a9.94,9.94,0,0,1,10-9.86c7.56,0,10.15,5.9,10.15,12.89V49.19C20.9,50.49,21.47,50.92,22.34,50.92Zm-11.52.29c.58,0,1-.36,1-2.45V35.95c-1.8.79-2.38,3.24-2.38,7.92C9.45,50.42,9.88,51.21,10.82,51.21Z"/><path class="cls-2" d="M27.81,7.36h-.07v-7H39.33V48.69c0,1.58.43,2.23,2.09,2.23h.14v6.34H27.73V50.92h.07c1.73,0,2.16-.65,2.16-2.23v-39C30,8.08,29.53,7.36,27.81,7.36Z"/><path class="cls-2" d="M46.24,7.36h-.07v-7H57.76V48.69c0,1.58.43,2.23,2.09,2.23H60v6.34H46.17V50.92h.07c1.73,0,2.16-.65,2.16-2.23v-39C48.4,8.08,48,7.36,46.24,7.36Z"/><path class="cls-1" d="M14.34,101h.07c1.73,0,2.16-.65,2.16-2.23V74.86c0-1.51-.43-3-2.16-3h-.07V64.78H24.93V68a7.29,7.29,0,0,1,7-4,5.27,5.27,0,0,1,5.26,3.53,7.89,7.89,0,0,1,7-3.53c3.74,0,6,2.23,6,7.13V98.84c0,1.51.43,2.16,1.73,2.16h.14v6.34H39.76v-6.12h.14c.58,0,.94-.72.94-1.73V73.63c0-1.3-.29-2.23-1.44-2.23s-1.66.5-1.66,2.38V99.48c0,1,.36,1.73.94,1.73h.14v6.12H27.88v-6.12H28c.58,0,.94-.72.94-1.73V73.63c0-1.3-.29-2.23-1.44-2.23S25.94,72,25.94,74V99.48c0,1,.29,1.73.86,1.73h.14v6.12H14.34Z"/><path class="cls-2" d="M58.48,115.61a5.08,5.08,0,0,1,4.75-5.33,3.48,3.48,0,0,1,3.6,2.3c.22.5.72.36.72-.22a3.83,3.83,0,0,0-1.44-2.59c-1-.94-1.8-2.45-2.45-6L58,74.71c-.36-1.73-.94-3.1-2.45-3.1h-.07V64.78H68.77v6.84h-.14c-1.22,0-1.37,1-1.22,2.45l2,21.75,1.94-21.75c.14-1.73-.07-2.45-1.22-2.45H70V64.78H82.38v6.84h-.07c-1.58,0-2,1.37-2.38,3.1l-7.49,37.23c-1.22,6-3.82,9.22-8,9.22C61.43,121.16,58.48,119.21,58.48,115.61Z"/><path class="cls-1" d="M16.5,119c0,3-2,5-4.1,5A3.14,3.14,0,0,1,9,121.55c-.14-.72-.65-.58-.65-.07A6.22,6.22,0,0,0,14.78,128h.5V135H13.77c-.86,0-1.37.58-1.37,1.66v24.63c0,1.8.58,2.88,2.66,2.88h.07v6.34H.38v-6.34H.45c2.16,0,2.59-.86,2.59-2.66V136.67c0-1.08-.5-1.66-1.37-1.66H.88V128H3.4c.36,0,.43-.29.22-.5a8.94,8.94,0,0,1-1.8-5.4c0-5.18,3.17-9.22,8.06-9.22C13.77,112.83,16.5,115.07,16.5,119Z"/><path class="cls-2" d="M19.74,170.51V164.1h.07c1.66,0,2.09-.72,2.09-2.16V138c0-1.58-.43-3.1-2.09-3.1h-.07v-7h6.48v2.23a6.27,6.27,0,0,1,5.18-3c3.24,0,5.9,2,5.9,6.55,0,4-2.23,6.63-5,6.63a3.78,3.78,0,0,1-3.89-3.89,4.29,4.29,0,0,1,1.44-3.17c0-.14-.14-.22-.29-.22-.86,0-2.38,1.22-2.38,3.38,0,4,4.1,5.33,4.1,9.43v16c0,1.44.43,2.23,1.73,2.23h1.3v6.41Z"/><path class="cls-2" d="M41.7,135h-.07V128H53.22v34.13c0,1.44.43,2.09,1.73,2.09h.14v6.34H41.63v-6.34h.07c1.73,0,2.16-.65,2.16-2.23V138C43.86,136.52,43.43,135,41.7,135Zm.72-14.83a5.9,5.9,0,0,1,5.83-5.83,5.8,5.8,0,1,1-5.83,5.83Z"/><path class="cls-2" d="M81.23,153.66v6.62c0,6.91-3.46,11.09-9.79,11.09-8.06,0-11-6.48-11-14.19V141.35c0-7.85,3-14.33,11-14.33,5.62,0,10.15,4.68,10.15,13.25v11.31H69.93v9.22c0,2.09.86,3.53,2.45,3.53s2.38-1.08,2.38-3.17v-7.49Zm-11.3-8.14h2.88v-9c0-1.87-.5-2.45-1.44-2.45s-1.44.58-1.44,2.45Z"/><path class="cls-2" d="M86.92,164.17H87c1.73,0,2.16-.65,2.16-2.23V138c0-1.51-.43-3-2.16-3h-.07V128H97.5v3.24a8,8,0,0,1,7.2-4c3.82,0,6.19,2.23,6.19,7.13V162c0,1.51.43,2.16,1.73,2.16h.14v6.34H100.45v-6.12h.14c.58,0,.94-.72.94-1.73V136.81c0-1.3-.29-2.23-1.44-2.23s-1.58.86-1.58,2.38v25.71c0,1,.29,1.73.86,1.73h.14v6.12H86.92Z"/><path class="cls-2" d="M128.53,120.18h-.22v-6.55h11.74V162c0,1.51.43,2.16,2.09,2.16h.14v6.55h-10v-3.38a6.55,6.55,0,0,1-6.26,4c-6,0-8.14-6.55-8.14-13.75V141.71c0-8.64,2.59-14.55,8.21-14.55a4.76,4.76,0,0,1,4.61,2.74v-7.42C130.69,120.9,130.26,120.18,128.53,120.18Zm.43,14c-1.08,0-1.58.86-1.58,3.46V161c0,2.59.36,3.38,1.58,3.38s1.73-1.44,1.73-3.46V137.68C130.69,135.16,130,134.22,129,134.22Z"/><path class="cls-2" d="M166,143.51h-6.19v-3.67c0-4.82-.58-5.9-1.87-5.9-1,0-1.51,1.3-1.51,2.88,0,6.41,10,13,10,24,0,5.11-2.23,10.51-7.92,10.51-4.1,0-5.4-2.38-6.41-2.38-.58,0-.86.36-.86,1.15v.36h-4.39V154.24h6.48v3.89c0,5.33.36,6.48,1.8,6.48,1.15,0,1.8-1.15,1.8-2.59,0-6.84-10.08-14.11-10.08-24.12,0-6,2.88-10.66,8.64-10.66,3.38,0,4.46,1.94,5.26,1.94.58,0,.72-.5.72-1V128H166Z"/><path d="M172.69,163.06a5.69,5.69,0,0,1,5.69-5.62,5.62,5.62,0,0,1,0,11.23A5.69,5.69,0,0,1,172.69,163.06Z"/></g></g></svg>