<svg xmlns="http://www.w3.org/2000/svg" viewBox="0 0 299.81 74.74"><defs><style>.cls-1,.cls-3{fill:green;}.cls-1,.cls-2{stroke:green;stroke-miterlimit:10;stroke-width:0.75px;}.cls-2{fill:#fff;}</style></defs><title>amf-green-outline_1</title><g id="Layer_2" data-name="Layer 2"><g id="Layer_1-2" data-name="Layer 1"><path class="cls-1" d="M22.34,54.21l2.43-.44v6.12a17.44,17.44,0,0,1-5.38,1.37A5.71,5.71,0,0,1,13.91,58C12.62,60,11,61.41,8.15,61.41c-5,0-7.78-4.18-7.78-12,0-6.62,3-11.09,6.34-13.18a14.9,14.9,0,0,1,5.11-2V27.42c0-3.24-.72-4.1-1.87-4.1-.72,0-1.37.29-1.37,1.3s1.66,1.08,1.66,3.82a4.4,4.4,0,0,1-4.32,4.39c-3.17,0-5.18-2.38-5.18-5.76a9.94,9.94,0,0,1,10-9.86c7.56,0,10.15,5.9,10.15,12.89V52.48C20.9,53.77,21.47,54.21,22.34,54.21Zm-11.52.29c.58,0,1-.36,1-2.45V39.23C10,40,9.45,42.47,9.45,47.15,9.45,53.7,9.88,54.49,10.82,54.49Z"/><path class="cls-1" d="M24.85,10.64h-.07v-7H36.38V52c0,1.58.43,2.23,2.09,2.23h.14v6.34H24.78V54.21h.07c1.73,0,2.16-.65,2.16-2.23v-39C27,11.36,26.58,10.64,24.85,10.64Z"/><path class="cls-1" d="M40.33,10.64h-.07v-7H51.85V52c0,1.58.43,2.23,2.09,2.23h.14v6.34H40.26V54.21h.07c1.73,0,2.16-.65,2.16-2.23v-39C42.49,11.36,42.06,10.64,40.33,10.64Z"/><path class="cls-1" d="M62.87,54.21h.07c1.73,0,2.16-.65,2.16-2.23V28.07c0-1.51-.43-3-2.16-3h-.07V18H73.45v3.24a7.29,7.29,0,0,1,7-4,5.27,5.27,0,0,1,5.26,3.53,7.89,7.89,0,0,1,7-3.53c3.74,0,6,2.23,6,7.13V52c0,1.51.43,2.16,1.73,2.16h.14v6.34H88.29V54.42h.14c.58,0,.94-.72.94-1.73V26.84c0-1.3-.29-2.23-1.44-2.23s-1.66.5-1.66,2.38V52.69c0,1,.36,1.73.94,1.73h.14v6.12H76.41V54.42h.14c.58,0,.94-.72.94-1.73V26.84c0-1.3-.29-2.23-1.44-2.23s-1.58.65-1.58,2.59V52.69c0,1,.29,1.73.86,1.73h.14v6.12H62.87Z"/><path class="cls-1" d="M104.05,68.82a5.08,5.08,0,0,1,4.75-5.33,3.48,3.48,0,0,1,3.6,2.3c.22.5.72.36.72-.22A3.83,3.83,0,0,0,111.68,63c-1-.94-1.8-2.45-2.45-6l-5.69-29.09c-.36-1.73-.94-3.1-2.45-3.1H101V18h13.32v6.84h-.14c-1.22,0-1.37,1-1.22,2.45L115,49l1.94-21.75c.14-1.73-.07-2.45-1.22-2.45h-.14V18H128v6.84h-.07c-1.58,0-2,1.37-2.38,3.1L118,65.15c-1.22,6-3.82,9.22-8,9.22C107,74.37,104.05,72.42,104.05,68.82Z"/><path class="cls-1" d="M152.72,9c0,3-2,5-4.1,5a3.14,3.14,0,0,1-3.38-2.45c-.14-.72-.65-.58-.65-.07A6.22,6.22,0,0,0,151,18h.5V25H150c-.86,0-1.37.58-1.37,1.66V51.33c0,1.8.58,2.88,2.66,2.88h.07v6.34H136.59V54.21h.07c2.16,0,2.59-.86,2.59-2.66V26.7c0-1.08-.5-1.66-1.37-1.66h-.79V18h2.52c.36,0,.43-.29.22-.5a8.94,8.94,0,0,1-1.8-5.4c0-5.18,3.17-9.22,8.06-9.22C150,2.87,152.72,5.1,152.72,9Z"/><path class="cls-1" d="M153,60.54V54.13h.07c1.66,0,2.09-.72,2.09-2.16V28.07c0-1.58-.43-3.1-2.09-3.1H153V18h6.48v2.23a6.27,6.27,0,0,1,5.18-3c3.24,0,5.9,2,5.9,6.55,0,4-2.23,6.63-5,6.63a3.78,3.78,0,0,1-3.89-3.89,4.29,4.29,0,0,1,1.44-3.17c0-.14-.14-.22-.29-.22-.86,0-2.38,1.22-2.38,3.38,0,4,4.1,5.33,4.1,9.43v16c0,1.44.43,2.23,1.73,2.23h1.3v6.41Z"/><path class="cls-1" d="M172,25h-.07V18h11.59V52.12c0,1.44.43,2.09,1.73,2.09h.14v6.34H171.95V54.21H172c1.73,0,2.16-.65,2.16-2.23V28.07C174.18,26.56,173.75,25,172,25Zm.72-14.83a5.9,5.9,0,0,1,5.83-5.83,5.8,5.8,0,0,1,0,11.59A5.89,5.89,0,0,1,172.74,10.21Z"/><path class="cls-1" d="M208.6,43.69v6.62c0,6.91-3.46,11.09-9.79,11.09-8.06,0-11-6.48-11-14.19V31.38c0-7.85,3-14.33,11-14.33,5.62,0,10.15,4.68,10.15,13.25V41.61H197.29v9.22c0,2.09.86,3.53,2.45,3.53s2.38-1.08,2.38-3.17V43.69Zm-11.31-8.14h2.88v-9c0-1.87-.5-2.45-1.44-2.45s-1.44.58-1.44,2.45Z"/><path class="cls-1" d="M211.33,54.21h.07c1.73,0,2.16-.65,2.16-2.23V28.07c0-1.51-.43-3-2.16-3h-.07V18h10.58v3.24a8,8,0,0,1,7.2-4c3.82,0,6.19,2.23,6.19,7.13V52c0,1.51.43,2.16,1.73,2.16h.14v6.34H224.87V54.42H225c.58,0,.94-.72.94-1.73V26.84c0-1.3-.29-2.23-1.44-2.23s-1.58.86-1.58,2.38V52.69c0,1,.29,1.73.86,1.73h.14v6.12h-12.6Z"/><path class="cls-1" d="M250,10.21h-.22V3.66h11.74V52c0,1.51.43,2.16,2.09,2.16h.14v6.55h-10V57.37a6.55,6.55,0,0,1-6.26,4c-6,0-8.14-6.55-8.14-13.75V31.74c0-8.64,2.59-14.54,8.21-14.54a4.76,4.76,0,0,1,4.61,2.74V12.51C252.15,10.93,251.72,10.21,250,10.21Zm.43,14c-1.08,0-1.58.86-1.58,3.46V51c0,2.59.36,3.38,1.58,3.38S252.15,53,252.15,51V27.71C252.15,25.19,251.43,24.25,250.43,24.25Z"/><path class="cls-1" d="M284.55,33.54h-6.19V29.87c0-4.82-.58-5.9-1.87-5.9-1,0-1.51,1.3-1.51,2.88,0,6.41,10,13,10,24,0,5.11-2.23,10.51-7.92,10.51-4.1,0-5.4-2.38-6.41-2.38-.58,0-.86.36-.86,1.15v.36H265.4V44.27h6.48v3.89c0,5.33.36,6.48,1.8,6.48,1.15,0,1.8-1.15,1.8-2.59,0-6.84-10.08-14.11-10.08-24.12,0-6,2.88-10.66,8.64-10.66,3.38,0,4.46,1.94,5.26,1.94.58,0,.72-.5.72-1V18h4.54Z"/><path class="cls-1" d="M286.64,55.43a5.69,5.69,0,0,1,5.69-5.62,5.62,5.62,0,0,1,0,11.23A5.69,5.69,0,0,1,286.64,55.43Z"/><path class="cls-2" d="M23.83,51.72h.94v6.12a9.1,9.1,0,0,1-3.89.94,5.71,5.71,0,0,1-5.47-3.24c-1.3,1.94-2.88,3.38-5.76,3.38-5,0-7.78-4.18-7.78-12,0-6.62,3-11.09,6.34-13.18a14.9,14.9,0,0,1,5.11-2V24.93c0-3.24-.72-4.1-1.87-4.1-.72,0-1.37.29-1.37,1.3s1.66,1.08,1.66,3.82a4.4,4.4,0,0,1-4.32,4.39c-3.17,0-5.18-2.38-5.18-5.76a9.94,9.94,0,0,1,10-9.86c7.56,0,10.15,5.9,10.15,12.89V50C22.39,51.28,23,51.72,23.83,51.72ZM12.31,52c.58,0,1-.36,1-2.45V36.74c-1.8.79-2.38,3.24-2.38,7.92C10.94,51.21,11.37,52,12.31,52Z"/><path class="cls-2" d="M26.35,8.15h-.07v-7H37.87V49.48c0,1.58.43,2.23,2.09,2.23h.14v6.34H26.28V51.72h.07c1.73,0,2.16-.65,2.16-2.23v-39C28.51,8.87,28.08,8.15,26.35,8.15Z"/><path class="cls-2" d="M41.83,8.15h-.07v-7H53.35V49.48c0,1.58.43,2.23,2.09,2.23h.14v6.34H41.75V51.72h.07c1.73,0,2.16-.65,2.16-2.23v-39C44,8.87,43.55,8.15,41.83,8.15Z"/><path class="cls-2" d="M64.36,51.72h.07c1.73,0,2.16-.65,2.16-2.23V25.58c0-1.51-.43-3-2.16-3h-.07V15.5H74.95v3.24a7.29,7.29,0,0,1,7-4,5.27,5.27,0,0,1,5.26,3.53,7.89,7.89,0,0,1,7-3.53c3.74,0,6,2.23,6,7.13V49.56c0,1.51.43,2.16,1.73,2.16h.14v6.34H89.78V51.93h.14c.58,0,.94-.72.94-1.73V24.35c0-1.3-.29-2.23-1.44-2.23s-1.66.5-1.66,2.38V50.2c0,1,.36,1.73.94,1.73h.14v6.12H77.9V51.93H78c.58,0,.94-.72.94-1.73V24.35c0-1.3-.29-2.23-1.44-2.23S76,22.77,76,24.71V50.2c0,1,.29,1.73.86,1.73H77v6.12H64.36Z"/><path class="cls-2" d="M105.55,66.33A5.08,5.08,0,0,1,110.3,61a3.48,3.48,0,0,1,3.6,2.3c.22.5.72.36.72-.22a3.83,3.83,0,0,0-1.44-2.59c-1-.94-1.8-2.45-2.45-6L105,25.43c-.36-1.73-.94-3.1-2.45-3.1h-.07V15.5h13.32v6.84h-.14c-1.22,0-1.37,1-1.22,2.45l2,21.75,1.94-21.75c.14-1.73-.07-2.45-1.22-2.45h-.14V15.5h12.38v6.84h-.07c-1.58,0-2,1.37-2.38,3.1l-7.49,37.23c-1.22,6-3.82,9.22-8,9.22C108.5,71.88,105.55,69.93,105.55,66.33Z"/><path class="cls-2" d="M154.22,6.5c0,3-2,5-4.1,5a3.14,3.14,0,0,1-3.38-2.45c-.14-.72-.65-.58-.65-.07a6.22,6.22,0,0,0,6.41,6.48h.5v7.06h-1.51c-.86,0-1.37.58-1.37,1.66V48.83c0,1.8.58,2.88,2.66,2.88h.07v6.34H138.09V51.72h.07c2.16,0,2.59-.86,2.59-2.66V24.21c0-1.08-.5-1.66-1.37-1.66h-.79V15.5h2.52c.36,0,.43-.29.22-.5a8.94,8.94,0,0,1-1.8-5.4c0-5.18,3.17-9.22,8.06-9.22C151.48.38,154.22,2.61,154.22,6.5Z"/><path class="cls-2" d="M154.5,58.05V51.64h.07c1.66,0,2.09-.72,2.09-2.16V25.58c0-1.58-.43-3.1-2.09-3.1h-.07v-7H161v2.23a6.27,6.27,0,0,1,5.18-3c3.24,0,5.9,2,5.9,6.55,0,4-2.23,6.63-5,6.63A3.78,3.78,0,0,1,163.22,24a4.29,4.29,0,0,1,1.44-3.17c0-.14-.14-.22-.29-.22-.86,0-2.38,1.22-2.38,3.38,0,4,4.1,5.33,4.1,9.43v16c0,1.44.43,2.23,1.73,2.23h1.3v6.41Z"/><path class="cls-2" d="M173.51,22.55h-.07V15.5H185V49.63c0,1.44.43,2.09,1.73,2.09h.14v6.34H173.44V51.72h.07c1.73,0,2.16-.65,2.16-2.23V25.58C175.67,24.06,175.24,22.55,173.51,22.55Zm.72-14.83a5.9,5.9,0,0,1,5.83-5.83,5.8,5.8,0,0,1,0,11.59A5.89,5.89,0,0,1,174.23,7.72Z"/><path class="cls-2" d="M210.09,41.2v6.62c0,6.91-3.46,11.09-9.79,11.09-8.06,0-11-6.48-11-14.19V28.89c0-7.85,3-14.33,11-14.33,5.62,0,10.15,4.68,10.15,13.25V39.11H198.78v9.22c0,2.09.86,3.53,2.45,3.53s2.38-1.08,2.38-3.17V41.2Zm-11.31-8.14h2.88v-9c0-1.87-.5-2.45-1.44-2.45s-1.44.58-1.44,2.45Z"/><path class="cls-2" d="M212.82,51.72h.07c1.73,0,2.16-.65,2.16-2.23V25.58c0-1.51-.43-3-2.16-3h-.07V15.5h10.58v3.24a8,8,0,0,1,7.2-4c3.82,0,6.19,2.23,6.19,7.13V49.56c0,1.51.43,2.16,1.73,2.16h.14v6.34H226.36V51.93h.14c.58,0,.94-.72.94-1.73V24.35c0-1.3-.29-2.23-1.44-2.23s-1.58.86-1.58,2.38V50.2c0,1,.29,1.73.86,1.73h.14v6.12h-12.6Z"/><path class="cls-2" d="M251.49,7.72h-.22V1.17H263V49.56c0,1.51.43,2.16,2.09,2.16h.14v6.55h-10V54.88a6.55,6.55,0,0,1-6.26,4c-6,0-8.14-6.55-8.14-13.75V29.25c0-8.64,2.59-14.54,8.21-14.54a4.76,4.76,0,0,1,4.61,2.74V10C253.65,8.44,253.22,7.72,251.49,7.72Zm.43,14c-1.08,0-1.58.86-1.58,3.46V48.55c0,2.59.36,3.38,1.58,3.38s1.73-1.44,1.73-3.46V25.22C253.65,22.7,252.93,21.76,251.92,21.76Z"/><path class="cls-2" d="M286,31h-6.19V27.38c0-4.82-.58-5.9-1.87-5.9-1,0-1.51,1.3-1.51,2.88,0,6.41,10,13,10,24,0,5.11-2.23,10.51-7.92,10.51-4.1,0-5.4-2.38-6.41-2.38-.58,0-.86.36-.86,1.15v.36h-4.39V41.78h6.48v3.89c0,5.33.36,6.48,1.8,6.48,1.15,0,1.8-1.15,1.8-2.59,0-6.84-10.08-14.11-10.08-24.12,0-6,2.88-10.66,8.64-10.66,3.38,0,4.46,1.94,5.26,1.94.58,0,.72-.5.72-1V15.5H286Z"/><path class="cls-2" d="M288.13,52.94a5.69,5.69,0,0,1,5.69-5.62,5.62,5.62,0,0,1,0,11.23A5.69,5.69,0,0,1,288.13,52.94Z"/><rect class="cls-3" x="38.51" y="58.38" width="2.44" height="2.54"/><rect class="cls-3" x="74.64" y="58.37" width="2.44" height="2.54"/><rect class="cls-3" x="86.92" y="58.37" width="2.44" height="2.54"/><ellipse class="cls-3" cx="11.87" cy="45.63" rx="0.7" ry="5.17"/><polyline class="cls-3" points="54.47 60.91 54.21 58.29 55.92 58.41"/><polygon class="cls-3" points="102.16 17.61 100.66 17.61 100.66 17.61 102.16 15.12 102.16 17.61"/><polygon class="cls-3" points="137.73 53.9 136.24 53.9 136.24 53.9 137.73 51.41 137.73 53.9"/><polygon class="cls-3" points="154.15 53.79 152.65 53.79 152.65 53.79 154.15 51.29 154.15 53.79"/><polygon class="cls-3" points="173.1 53.84 171.6 53.84 171.6 53.84 173.1 51.34 173.1 53.84"/><polygon class="cls-3" points="138.25 17.66 136.76 17.66 136.76 17.66 138.25 15.16 138.25 17.66"/><polygon class="cls-3" points="154.22 17.66 152.72 17.66 152.72 17.66 154.22 15.16 154.22 17.66"/><polygon class="cls-3" points="173.09 17.62 171.59 17.62 171.59 17.62 173.09 15.13 173.09 17.62"/><polygon class="cls-3" points="151.87 22.92 153.37 22.92 153.37 22.92 151.87 25.41 151.87 22.92"/><polygon class="cls-3" points="100.97 58.41 102.47 58.41 102.47 58.41 100.97 60.91 100.97 58.41"/><polygon class="cls-3" points="151.72 58.41 153.22 58.41 153.22 58.41 151.72 60.9 151.72 58.41"/><polygon class="cls-3" points="128.31 22.7 129.86 22.7 129.86 22.7 128.31 25.2 128.31 22.7"/><polygon class="cls-3" points="167.99 58.43 169.48 58.43 169.48 58.43 167.99 60.92 167.99 58.43"/><polygon class="cls-3" points="185.72 58.43 187.22 58.43 187.22 58.43 185.72 60.92 185.72 58.43"/><polygon class="cls-3" points="212.49 53.83 210.99 53.83 210.99 53.83 212.49 51.33 212.49 53.83"/><polygon class="cls-3" points="212.46 17.62 210.96 17.62 210.96 17.62 212.46 15.13 212.46 17.62"/><polygon class="cls-3" points="250.91 3.29 249.41 3.29 249.41 3.29 250.91 0.8 250.91 3.29"/><polygon class="cls-3" points="264.12 58.64 265.62 58.64 265.62 58.64 264.12 61.13 264.12 58.64"/><polygon class="cls-3" points="237.54 58.43 239.04 58.43 239.04 58.43 237.54 60.92 237.54 58.43"/><polygon class="cls-3" points="284.9 31.4 286.43 31.4 286.43 31.4 284.9 33.92 284.9 31.4"/><polygon class="cls-3" points="266.52 43.91 265.02 43.91 265.02 43.91 266.52 41.41 266.52 43.91"/><polygon class="cls-3" points="64.03 53.88 62.53 53.88 62.53 53.88 64.03 51.38 64.03 53.88"/><polygon class="cls-3" points="64.01 17.61 62.52 17.61 62.52 17.61 64.01 15.12 64.01 17.61"/><polygon class="cls-3" points="41.38 3.3 39.89 3.3 39.89 3.3 41.38 0.81 41.38 3.3"/><polygon class="cls-3" points="25.9 3.3 24.4 3.3 24.4 3.3 25.9 0.81 25.9 3.3"/><polygon class="cls-3" points="25.9 53.87 24.4 53.87 24.4 53.87 25.9 51.37 25.9 53.87"/><polygon class="cls-3" points="41.4 53.87 39.91 53.87 39.91 53.87 41.4 51.37 41.4 53.87"/><line class="cls-3" x1="115.79" y1="14.5" x2="115.02" y2="14.5"/><polygon class="cls-3" points="116.71 15.13 115.96 16.37 115.96 17.62 116.71 17.62 116.71 15.13"/><polygon class="cls-3" points="210.82 39.47 209.32 39.47 209.32 41.09 209.85 41.09 210.82 39.47"/><polygon class="cls-3" points="201.74 43.34 203.24 43.34 203.24 41.73 202.71 41.73 201.74 43.34"/><rect class="cls-3" x="223.06" y="58.24" width="2.68" height="2.68"/><polygon class="cls-3" points="115.62 22.59 114.71 22.59 114.71 24.07 115.62 22.59"/></g></g></svg>