<svg xmlns="http://www.w3.org/2000/svg" viewBox="0 0 124.83 124.83"><defs><style>.cls-1{fill:#fff;stroke-width:0.75px;}.cls-1,.cls-2{stroke:#000;stroke-miterlimit:10;}</style></defs><title>amf-circle-logo</title><g id="Layer_2" data-name="Layer 2"><g id="Layer_1-2" data-name="Layer 1"><circle class="cls-1" cx="62.41" cy="62.41" r="62.04"/><path class="cls-2" d="M38.45,81h.94v6.12a9.1,9.1,0,0,1-3.89.94A5.71,5.71,0,0,1,30,84.82c-1.3,1.94-2.88,3.38-5.76,3.38-5,0-7.78-4.18-7.78-12,0-6.62,3-11.09,6.34-13.18a14.9,14.9,0,0,1,5.11-2V54.22c0-3.24-.72-4.1-1.87-4.1-.72,0-1.37.29-1.37,1.3s1.66,1.08,1.66,3.82A4.4,4.4,0,0,1,22,59.62c-3.17,0-5.18-2.38-5.18-5.76a9.94,9.94,0,0,1,10-9.86C34.41,44,37,49.9,37,56.88V79.28C37,80.57,37.58,81,38.45,81Zm-11.52.29c.58,0,1-.36,1-2.45V66c-1.8.79-2.38,3.24-2.38,7.92C25.56,80.5,26,81.29,26.93,81.29Z"/><path class="cls-2" d="M40.24,81h.07c1.73,0,2.16-.65,2.16-2.23V54.87c0-1.51-.43-3-2.16-3h-.07V44.78H50.83V48a7.29,7.29,0,0,1,7-4,5.27,5.27,0,0,1,5.26,3.53,7.89,7.89,0,0,1,7-3.53c3.74,0,6,2.23,6,7.13V78.84c0,1.51.43,2.16,1.73,2.16H78v6.34H65.66V81.22h.14c.58,0,.94-.72.94-1.73V53.64c0-1.3-.29-2.23-1.44-2.23s-1.66.5-1.66,2.38V79.49c0,1,.36,1.73.94,1.73h.14v6.12H53.78V81.22h.14c.58,0,.94-.72.94-1.73V53.64c0-1.3-.29-2.23-1.44-2.23s-1.58.65-1.58,2.59V79.49c0,1,.29,1.73.86,1.73h.14v6.12H40.24Z"/><path class="cls-2" d="M95.11,35.78c0,3-2,5-4.1,5a3.14,3.14,0,0,1-3.38-2.45c-.14-.72-.65-.58-.65-.07a6.22,6.22,0,0,0,6.41,6.48h.5v7.06H92.37c-.86,0-1.37.58-1.37,1.66V78.12c0,1.8.58,2.88,2.66,2.88h.07v6.34H79V81h.07c2.16,0,2.59-.86,2.59-2.66V53.5c0-1.08-.5-1.66-1.37-1.66h-.79V44.78H82c.36,0,.43-.29.22-.5a8.94,8.94,0,0,1-1.8-5.4c0-5.18,3.17-9.22,8.06-9.22C92.37,29.66,95.11,31.9,95.11,35.78Z"/><path class="cls-2" d="M101.8,30.67c4.32,0,7,4.54,6.12,11.16l-4.1,31.9a36.45,36.45,0,0,0-4,0l-4.1-31.9C94.89,35.21,97.55,30.67,101.8,30.67ZM96.19,82.23a5.69,5.69,0,0,1,5.69-5.62,5.62,5.62,0,0,1,0,11.23A5.69,5.69,0,0,1,96.19,82.23Z"/><path class="cls-1" d="M39.72,78.87h.94V85a9.1,9.1,0,0,1-3.89.94,5.71,5.71,0,0,1-5.47-3.24c-1.3,1.94-2.88,3.38-5.76,3.38-5,0-7.78-4.18-7.78-12,0-6.62,3-11.09,6.34-13.18a14.9,14.9,0,0,1,5.11-2V52.08c0-3.24-.72-4.1-1.87-4.1-.72,0-1.37.29-1.37,1.3s1.66,1.08,1.66,3.82a4.4,4.4,0,0,1-4.32,4.39c-3.17,0-5.18-2.38-5.18-5.76a9.94,9.94,0,0,1,10-9.86c7.56,0,10.15,5.9,10.15,12.89V77.14C38.28,78.44,38.86,78.87,39.72,78.87Zm-11.52.29c.58,0,1-.36,1-2.45V63.89c-1.8.79-2.38,3.24-2.38,7.92C26.83,78.36,27.27,79.16,28.2,79.16Z"/><path class="cls-1" d="M41.52,78.87h.07c1.73,0,2.16-.65,2.16-2.23V52.73c0-1.51-.43-3-2.16-3h-.07V42.65H52.11v3.24a7.29,7.29,0,0,1,7-4,5.27,5.27,0,0,1,5.26,3.53,7.89,7.89,0,0,1,7-3.53c3.74,0,6,2.23,6,7.13V76.71c0,1.51.43,2.16,1.73,2.16h.14V85.2H66.94V79.08h.14c.58,0,.94-.72.94-1.73V51.5c0-1.3-.29-2.23-1.44-2.23s-1.66.5-1.66,2.38V77.36c0,1,.36,1.73.94,1.73H66V85.2H55.06V79.08h.14c.58,0,.94-.72.94-1.73V51.5c0-1.3-.29-2.23-1.44-2.23s-1.58.65-1.58,2.59V77.36c0,1,.29,1.73.86,1.73h.14V85.2H41.52Z"/><path class="cls-1" d="M96.39,33.65c0,3-2,5-4.1,5a3.14,3.14,0,0,1-3.38-2.45c-.14-.72-.65-.58-.65-.07a6.22,6.22,0,0,0,6.41,6.48h.5V49.7H93.65c-.86,0-1.37.58-1.37,1.66V76c0,1.8.58,2.88,2.66,2.88H95V85.2H80.26V78.87h.07c2.16,0,2.59-.86,2.59-2.66V51.36c0-1.08-.5-1.66-1.37-1.66h-.79V42.65h2.52c.36,0,.43-.29.22-.5a8.94,8.94,0,0,1-1.8-5.4c0-5.18,3.17-9.22,8.06-9.22C93.65,27.53,96.39,29.76,96.39,33.65Z"/><path class="cls-1" d="M103.08,28.53c4.32,0,7,4.54,6.12,11.16l-4.1,31.9a36.45,36.45,0,0,0-4,0L97,39.7C96.17,33.07,98.83,28.53,103.08,28.53ZM97.46,80.09a5.69,5.69,0,0,1,5.69-5.62,5.62,5.62,0,0,1,0,11.23A5.69,5.69,0,0,1,97.46,80.09Z"/><polygon points="80.4 44.34 78.98 44.34 78.98 44.34 80.4 42.27 80.4 44.34"/><polygon points="94.37 50.01 95.53 50.01 95.53 50.01 94.37 52.34 94.37 50.01"/><polygon points="94.24 85.52 95.4 85.52 95.4 85.52 94.24 87.84 94.24 85.52"/><polygon points="41.17 44.34 39.74 44.34 39.74 44.34 41.17 42.27 41.17 44.34"/><polygon points="79.91 78.48 79.19 79.52 79.19 80.55 79.91 80.55 79.91 78.48"/><polygon points="41.15 78.48 40.44 79.52 40.44 80.55 41.15 80.55 41.15 78.48"/><ellipse cx="27.71" cy="72.1" rx="0.9" ry="5.12"/></g></g></svg>