<svg xmlns="http://www.w3.org/2000/svg" viewBox="0 0 298.32 72.25"><defs><style>.cls-1{fill:#ffc300;stroke:#fff;stroke-miterlimit:10;stroke-width:0.75px;}</style></defs><title>amf-yellow_1</title><g id="Layer_2" data-name="Layer 2"><g id="Layer_1-2" data-name="Layer 1"><path class="cls-1" d="M22.34,51.72h.94v6.12a9.1,9.1,0,0,1-3.89.94,5.71,5.71,0,0,1-5.47-3.24c-1.3,1.94-2.88,3.38-5.76,3.38-5,0-7.78-4.18-7.78-12,0-6.62,3-11.09,6.34-13.18a14.9,14.9,0,0,1,5.11-2V24.93c0-3.24-.72-4.1-1.87-4.1-.72,0-1.37.29-1.37,1.3s1.66,1.08,1.66,3.82a4.4,4.4,0,0,1-4.32,4.39C2.75,30.33.74,28,.74,24.57a9.94,9.94,0,0,1,10-9.86c7.56,0,10.15,5.9,10.15,12.89V50C20.9,51.28,21.47,51.72,22.34,51.72ZM10.82,52c.58,0,1-.36,1-2.45V36.74C10,37.53,9.45,40,9.45,44.66,9.45,51.21,9.88,52,10.82,52Z"/><path class="cls-1" d="M24.85,8.15h-.07v-7H36.38V49.48c0,1.58.43,2.23,2.09,2.23h.14v6.34H24.78V51.72h.07c1.73,0,2.16-.65,2.16-2.23v-39C27,8.87,26.58,8.15,24.85,8.15Z"/><path class="cls-1" d="M40.33,8.15h-.07v-7H51.85V49.48c0,1.58.43,2.23,2.09,2.23h.14v6.34H40.26V51.72h.07c1.73,0,2.16-.65,2.16-2.23v-39C42.49,8.87,42.06,8.15,40.33,8.15Z"/><path class="cls-1" d="M62.87,51.72h.07c1.73,0,2.16-.65,2.16-2.23V25.58c0-1.51-.43-3-2.16-3h-.07V15.5H73.45v3.24a7.29,7.29,0,0,1,7-4,5.27,5.27,0,0,1,5.26,3.53,7.89,7.89,0,0,1,7-3.53c3.74,0,6,2.23,6,7.13V49.56c0,1.51.43,2.16,1.73,2.16h.14v6.34H88.29V51.93h.14c.58,0,.94-.72.94-1.73V24.35c0-1.3-.29-2.23-1.44-2.23s-1.66.5-1.66,2.38V50.2c0,1,.36,1.73.94,1.73h.14v6.12H76.41V51.93h.14c.58,0,.94-.72.94-1.73V24.35c0-1.3-.29-2.23-1.44-2.23s-1.58.65-1.58,2.59V50.2c0,1,.29,1.73.86,1.73h.14v6.12H62.87Z"/><path class="cls-1" d="M104.05,66.33A5.08,5.08,0,0,1,108.8,61a3.48,3.48,0,0,1,3.6,2.3c.22.5.72.36.72-.22a3.83,3.83,0,0,0-1.44-2.59c-1-.94-1.8-2.45-2.45-6l-5.69-29.09c-.36-1.73-.94-3.1-2.45-3.1H101V15.5h13.32v6.84h-.14c-1.22,0-1.37,1-1.22,2.45l2,21.75,1.94-21.75c.14-1.73-.07-2.45-1.22-2.45h-.14V15.5H128v6.84h-.07c-1.58,0-2,1.37-2.38,3.1L118,62.66c-1.22,6-3.82,9.22-8,9.22C107,71.88,104.05,69.93,104.05,66.33Z"/><path class="cls-1" d="M152.72,6.5c0,3-2,5-4.1,5a3.14,3.14,0,0,1-3.38-2.45c-.14-.72-.65-.58-.65-.07A6.22,6.22,0,0,0,151,15.5h.5v7.06H150c-.86,0-1.37.58-1.37,1.66V48.83c0,1.8.58,2.88,2.66,2.88h.07v6.34H136.59V51.72h.07c2.16,0,2.59-.86,2.59-2.66V24.21c0-1.08-.5-1.66-1.37-1.66h-.79V15.5h2.52c.36,0,.43-.29.22-.5a8.94,8.94,0,0,1-1.8-5.4C138,4.41,141.2.38,146.1.38,150,.38,152.72,2.61,152.72,6.5Z"/><path class="cls-1" d="M153,58.05V51.64h.07c1.66,0,2.09-.72,2.09-2.16V25.58c0-1.58-.43-3.1-2.09-3.1H153v-7h6.48v2.23a6.27,6.27,0,0,1,5.18-3c3.24,0,5.9,2,5.9,6.55,0,4-2.23,6.63-5,6.63A3.78,3.78,0,0,1,161.72,24a4.29,4.29,0,0,1,1.44-3.17c0-.14-.14-.22-.29-.22-.86,0-2.38,1.22-2.38,3.38,0,4,4.1,5.33,4.1,9.43v16c0,1.44.43,2.23,1.73,2.23h1.3v6.41Z"/><path class="cls-1" d="M172,22.55h-.07V15.5h11.59V49.63c0,1.44.43,2.09,1.73,2.09h.14v6.34H171.95V51.72H172c1.73,0,2.16-.65,2.16-2.23V25.58C174.18,24.06,173.75,22.55,172,22.55Zm.72-14.83a5.9,5.9,0,0,1,5.83-5.83,5.8,5.8,0,0,1,0,11.59A5.89,5.89,0,0,1,172.74,7.72Z"/><path class="cls-1" d="M208.6,41.2v6.62c0,6.91-3.46,11.09-9.79,11.09-8.06,0-11-6.48-11-14.19V28.89c0-7.85,3-14.33,11-14.33,5.62,0,10.15,4.68,10.15,13.25V39.11H197.29v9.22c0,2.09.86,3.53,2.45,3.53s2.38-1.08,2.38-3.17V41.2Zm-11.31-8.14h2.88v-9c0-1.87-.5-2.45-1.44-2.45s-1.44.58-1.44,2.45Z"/><path class="cls-1" d="M211.33,51.72h.07c1.73,0,2.16-.65,2.16-2.23V25.58c0-1.51-.43-3-2.16-3h-.07V15.5h10.58v3.24a8,8,0,0,1,7.2-4c3.82,0,6.19,2.23,6.19,7.13V49.56c0,1.51.43,2.16,1.73,2.16h.14v6.34H224.87V51.93H225c.58,0,.94-.72.94-1.73V24.35c0-1.3-.29-2.23-1.44-2.23s-1.58.86-1.58,2.38V50.2c0,1,.29,1.73.86,1.73h.14v6.12h-12.6Z"/><path class="cls-1" d="M250,7.72h-.22V1.17h11.74V49.56c0,1.51.43,2.16,2.09,2.16h.14v6.55h-10V54.88a6.55,6.55,0,0,1-6.26,4c-6,0-8.14-6.55-8.14-13.75V29.25c0-8.64,2.59-14.54,8.21-14.54a4.76,4.76,0,0,1,4.61,2.74V10C252.15,8.44,251.72,7.72,250,7.72Zm.43,14c-1.08,0-1.58.86-1.58,3.46V48.55c0,2.59.36,3.38,1.58,3.38s1.73-1.44,1.73-3.46V25.22C252.15,22.7,251.43,21.76,250.43,21.76Z"/><path class="cls-1" d="M284.55,31h-6.19V27.38c0-4.82-.58-5.9-1.87-5.9-1,0-1.51,1.3-1.51,2.88,0,6.41,10,13,10,24,0,5.11-2.23,10.51-7.92,10.51-4.1,0-5.4-2.38-6.41-2.38-.58,0-.86.36-.86,1.15v.36H265.4V41.78h6.48v3.89c0,5.33.36,6.48,1.8,6.48,1.15,0,1.8-1.15,1.8-2.59,0-6.84-10.08-14.11-10.08-24.12,0-6,2.88-10.66,8.64-10.66,3.38,0,4.46,1.94,5.26,1.94.58,0,.72-.5.72-1V15.5h4.54Z"/><path class="cls-1" d="M286.64,52.94a5.69,5.69,0,0,1,5.69-5.62,5.62,5.62,0,0,1,0,11.23A5.69,5.69,0,0,1,286.64,52.94Z"/></g></g></svg>